<?xml version="1.0" standalone="no"?>
<!DOCTYPE svg PUBLIC "-//W3C//DTD SVG 20010904//EN"
 "http://www.w3.org/TR/2001/REC-SVG-20010904/DTD/svg10.dtd">
<svg version="1.0" xmlns="http://www.w3.org/2000/svg"
 width="700.000000pt" height="700.000000pt" viewBox="0 0 700.000000 700.000000"
 preserveAspectRatio="xMidYMid meet">
<metadata>
Created by potrace 1.11, written by Peter Selinger 2001-2013
</metadata>
<g transform="translate(0.000000,700.000000) scale(0.100000,-0.100000)"
fill="#000000" stroke="none">
<path d="M3230 5249 c-253 -26 -506 -104 -750 -230 -103 -53 -119 -59 -144
-49 -131 50 -433 -81 -673 -292 -296 -261 -609 -806 -814 -1418 -153 -458
-203 -790 -150 -992 78 -300 281 -528 546 -615 159 -52 402 -41 547 24 32 14
65 23 75 20 10 -3 64 -22 121 -41 119 -42 272 -80 390 -97 80 -11 86 -13 124
-56 87 -93 255 -202 373 -241 258 -86 807 -94 1120 -16 130 32 274 116 395
230 l75 70 138 23 c149 24 326 71 446 119 l75 29 70 -33 c184 -86 454 -86 642
0 224 103 396 319 465 584 53 203 2 534 -150 992 -204 609 -520 1161 -814
1418 -150 131 -361 254 -496 288 -79 20 -163 15 -216 -12 l-39 -20 -50 34
c-76 52 -265 139 -399 184 -279 93 -604 128 -907 97z m455 -251 c5 -5 84 -520
175 -1144 l165 -1136 395 -140 c217 -77 400 -144 406 -149 6 -5 15 -42 18 -82
14 -144 53 -306 100 -418 5 -12 -3 -20 -33 -32 -119 -48 -404 -107 -517 -107
-58 0 -70 -8 -112 -71 -36 -53 -77 -91 -160 -147 -93 -64 -168 -90 -320 -113
-119 -18 -169 -20 -387 -16 -282 5 -401 21 -500 66 -118 54 -188 111 -305 248
-23 28 -31 30 -117 36 -103 7 -233 34 -362 73 -47 14 -87 27 -89 29 -2 1 8 28
22 59 35 78 73 240 89 373 8 62 16 115 18 116 2 2 83 31 179 65 96 34 269 95
385 136 l209 74 166 1143 166 1144 84 5 c116 7 313 0 325 -12z"/>
<path d="M3345 2506 c-178 -34 -231 -105 -171 -225 14 -26 48 -69 76 -94 118
-106 240 -130 355 -70 84 43 149 104 181 169 67 138 -26 216 -276 229 -59 3
-122 -1 -165 -9z"/>
</g>
</svg>
